<?xml version="1.0" encoding="UTF-8"?>
<svg version="1.1" xmlns="http://www.w3.org/2000/svg" width="800" height="800">
<path d="M0 0 C1.77433662 -0.01469078 1.77433662 -0.01469078 3.58451843 -0.02967834 C44.99718435 -0.30198183 83.26370972 3.66386196 123.3984375 14.23828125 C124.72903107 14.56305606 126.05976661 14.88724958 127.390625 15.2109375 C140.34813383 18.44372824 152.91637811 23.54206088 165.3984375 28.23828125 C166.33300781 28.58632813 167.26757812 28.934375 168.23046875 29.29296875 C186.65328765 36.38591095 204.43781495 45.8556181 221.16015625 56.26953125 C225.81425973 59.09904652 230.58499243 61.69168907 235.3984375 64.23828125 C235.3984375 64.89828125 235.3984375 65.55828125 235.3984375 66.23828125 C236.43484375 66.5940625 236.43484375 66.5940625 237.4921875 66.95703125 C240.95171663 68.48220001 243.86529922 70.51641508 246.8984375 72.73828125 C247.50792236 73.17970459 248.11740723 73.62112793 248.74536133 74.07592773 C260.74592133 82.8141695 272.93383978 91.69010049 283.3984375 102.23828125 C284.76509499 103.45604221 286.14049283 104.66404879 287.5234375 105.86328125 C292.88981264 110.66307078 297.98976611 115.71635896 303.0859375 120.80078125 C303.89369629 121.60402832 304.70145508 122.40727539 305.53369141 123.23486328 C310.3611907 128.07426518 314.96641757 133.03528868 319.3984375 138.23828125 C320.57599609 139.59373047 320.57599609 139.59373047 321.77734375 140.9765625 C332.56618336 153.69542709 342.31155904 167.26143007 351.3984375 181.23828125 C352.03120605 182.16459351 352.03120605 182.16459351 352.67675781 183.10961914 C357.15789256 189.6968271 361.16915747 196.52653836 365.1484375 203.42578125 C365.82668935 204.58666659 366.50507408 205.7474743 367.18359375 206.90820312 C367.82683594 208.02130859 368.47007812 209.13441406 369.1328125 210.28125 C369.71256836 211.2818042 370.29232422 212.2823584 370.88964844 213.31323242 C372.40025619 216.24180709 373.40488278 219.10241596 374.3984375 222.23828125 C374.95634736 223.49770911 375.54302183 224.74511265 376.16796875 225.97265625 C376.66115601 226.94851685 376.66115601 226.94851685 377.16430664 227.9440918 C377.68238892 228.95596558 377.68238892 228.95596558 378.2109375 229.98828125 C378.74932251 231.05912964 378.74932251 231.05912964 379.29858398 232.15161133 C380.75652077 235.04680262 382.22627362 237.9253879 383.7890625 240.765625 C387.81322812 248.18350362 390.1728341 256.21073981 392.75 264.21484375 C393.96688657 267.97972001 395.28237406 271.68763512 396.69287109 275.38378906 C400.1672115 284.51565402 402.82667013 293.45752975 404.58984375 303.0703125 C405.32244462 307.00006358 406.24911025 310.87158314 407.18432617 314.75732422 C409.391853 324.00925195 411.17196821 333.26919299 412.5859375 342.67578125 C412.74054443 343.68479492 412.89515137 344.69380859 413.05444336 345.73339844 C415.78672303 364.73617349 416.78296666 383.74214396 416.7109375 402.92578125 C416.70878235 403.97032471 416.7066272 405.01486816 416.70440674 406.09106445 C416.61328713 433.73875487 413.0409773 460.22216561 407.3984375 487.23828125 C407.16253906 488.36927246 406.92664063 489.50026367 406.68359375 490.66552734 C403.19942783 506.9963248 398.17073309 522.58304068 392.3984375 538.23828125 C392.04458984 539.20878418 391.69074219 540.17928711 391.32617188 541.17919922 C383.20773644 563.38258501 372.7185265 584.02558591 361.0234375 604.55078125 C360.52368408 605.42814941 360.02393066 606.30551758 359.5090332 607.20947266 C354.17969461 616.48297153 354.17969461 616.48297153 351.3984375 620.23828125 C350.7384375 620.23828125 350.0784375 620.23828125 349.3984375 620.23828125 C349.181875 620.89828125 348.9653125 621.55828125 348.7421875 622.23828125 C346.93497549 626.27298714 344.47417981 629.6588987 341.8984375 633.23828125 C341.36089844 633.99012695 340.82335937 634.74197266 340.26953125 635.51660156 C338.65490516 637.76390916 337.0296504 640.00299076 335.3984375 642.23828125 C334.73134766 643.15383789 334.73134766 643.15383789 334.05078125 644.08789062 C328.59258241 651.52233387 322.6927328 658.37903577 316.35546875 665.0703125 C314.22213109 667.32612817 312.17892362 669.64069106 310.15625 671.99609375 C305.81411719 676.98630609 301.14704438 681.63576713 296.4609375 686.30078125 C295.60564453 687.15994141 294.75035156 688.01910156 293.86914062 688.90429688 C288.87427508 693.89154249 283.76774149 698.65851616 278.3984375 703.23828125 C277.41101563 704.10710938 276.42359375 704.9759375 275.40625 705.87109375 C264.98532082 714.8799729 253.85101463 722.86700537 242.4765625 730.625 C241.7434082 731.12604248 241.01025391 731.62708496 240.25488281 732.14331055 C238.3984375 733.23828125 238.3984375 733.23828125 236.3984375 733.23828125 C236.3984375 733.89828125 236.3984375 734.55828125 236.3984375 735.23828125 C231.25331669 739.45600991 225.16688675 742.5375332 219.31640625 745.6484375 C215.10919407 747.94072044 211.02324789 750.42951493 206.9296875 752.91796875 C204.3984375 754.23828125 204.3984375 754.23828125 201.3984375 754.23828125 C201.0684375 754.89828125 200.7384375 755.55828125 200.3984375 756.23828125 C198.74707031 757.19628906 198.74707031 757.19628906 196.6015625 758.19140625 C195.81467041 758.56023926 195.02777832 758.92907227 194.21704102 759.30908203 C193.36940186 759.69821777 192.5217627 760.08735352 191.6484375 760.48828125 C190.77952881 760.89159668 189.91062012 761.29491211 189.01538086 761.71044922 C187.26955675 762.52039262 185.52274151 763.32820334 183.77490234 764.13378906 C181.82313338 765.04089845 179.88423905 765.97565989 177.94921875 766.91796875 C170.08991432 770.71920096 162.01670324 773.60693761 153.7578125 776.39453125 C150.29534595 777.56621191 146.87958433 778.81043823 143.4765625 780.14453125 C109.01629735 793.37003635 68.53838918 800.29912929 31.70703125 800.44140625 C30.52287125 800.44710632 29.33871124 800.4528064 28.1186676 800.4586792 C25.62021764 800.4680709 23.12175562 800.47463978 20.62329102 800.47851562 C16.89771327 800.48812196 13.1727121 800.51916152 9.44726562 800.55078125 C-12.48328708 800.64870213 -34.04639087 798.78520435 -55.5390625 794.36328125 C-56.82828613 794.10643555 -58.11750977 793.84958984 -59.44580078 793.58496094 C-69.21704105 791.60557394 -78.88782225 789.32322664 -88.52148438 786.76245117 C-90.68188004 786.21804161 -92.85014755 785.75844999 -95.03125 785.3046875 C-99.94881097 784.22946858 -104.61974507 782.62700532 -109.3515625 780.92578125 C-110.65927612 780.46220215 -110.65927612 780.46220215 -111.9934082 779.98925781 C-117.99434643 777.84982662 -123.94686264 775.60717259 -129.875 773.2734375 C-132.20760421 772.38784994 -134.52489409 771.63716286 -136.9140625 770.92578125 C-143.50721029 768.79699737 -149.60269022 765.34893446 -155.74658203 762.18994141 C-158.14737026 760.95826563 -160.56086371 759.75290624 -162.9765625 758.55078125 C-164.13865234 757.96683594 -164.13865234 757.96683594 -165.32421875 757.37109375 C-166.86754966 756.60339913 -168.4173222 755.84854433 -169.97265625 755.10546875 C-176.18456202 752.10387588 -181.99632766 748.60059941 -187.81640625 744.91015625 C-190.53982402 743.13823198 -190.53982402 743.13823198 -193.6015625 742.23828125 C-193.6015625 741.57828125 -193.6015625 740.91828125 -193.6015625 740.23828125 C-194.64957031 740.13386719 -194.64957031 740.13386719 -195.71875 740.02734375 C-199.40291062 739.01894206 -201.83610239 736.99613988 -204.7265625 734.61328125 C-208.67115758 731.46083162 -212.57637911 728.5310162 -216.9140625 725.92578125 C-224.01738031 721.53935288 -230.30432765 716.13361577 -236.70947266 710.80566406 C-238.42782807 709.38220061 -240.15686284 707.97399231 -241.89453125 706.57421875 C-242.84972656 705.80335938 -243.80492187 705.0325 -244.7890625 704.23828125 C-245.60761719 703.57828125 -246.42617187 702.91828125 -247.26953125 702.23828125 C-249.84969185 700.0254802 -252.20614317 697.64878984 -254.6015625 695.23828125 C-256.09140387 693.91426126 -257.59106774 692.60118959 -259.1015625 691.30078125 C-262.64965141 688.17939825 -265.58219364 684.87700782 -268.6015625 681.23828125 C-269.91941404 680.07467517 -271.25408743 678.9299503 -272.6015625 677.80078125 C-275.81052799 675.07346161 -278.14090448 672.32983434 -280.47265625 668.84375 C-282.22504231 666.35160235 -284.4253878 664.36499743 -286.6015625 662.23828125 C-296.90913904 651.52690274 -305.61951204 639.48853092 -313.72265625 627.0546875 C-316.29216498 623.20309541 -319.05329738 619.50514817 -321.83984375 615.80859375 C-323.73118526 613.04916424 -325.1232065 610.2387964 -326.6015625 607.23828125 C-328.22767283 604.38082654 -329.91518014 601.56049173 -331.6015625 598.73828125 C-334.44714997 593.97610693 -337.17987271 589.23467969 -339.6015625 584.23828125 C-340.19453125 583.06394531 -340.7875 581.88960937 -341.3984375 580.6796875 C-344.8575041 573.81980855 -348.26653692 566.93938077 -351.5390625 559.98828125 C-351.83329102 559.36896729 -352.12751953 558.74965332 -352.43066406 558.11157227 C-354.48807349 553.70327359 -354.48807349 553.70327359 -355.03588867 551.45874023 C-355.80990264 548.42047651 -356.91117156 545.54147967 -358 542.6015625 C-358.23562653 541.962686 -358.47125305 541.32380951 -358.71401978 540.66557312 C-359.46623372 538.62657607 -360.22115487 536.58859706 -360.9765625 534.55078125 C-366.49687545 519.64343354 -366.49687545 519.64343354 -368.390625 514.21875 C-368.6067041 513.60281982 -368.8227832 512.98688965 -369.04541016 512.35229492 C-369.83457889 509.35255303 -370.16637324 506.30801879 -370.6015625 503.23828125 C-371.06937276 501.10947251 -371.56627894 498.98688036 -372.08984375 496.87109375 C-375.05514508 484.67160384 -377.93330905 472.5194168 -379.9140625 460.11328125 C-380.06077393 459.20594238 -380.20748535 458.29860352 -380.35864258 457.36376953 C-380.81968842 454.32651246 -381.21857193 451.28640335 -381.6015625 448.23828125 C-381.73076584 447.26205811 -381.73076584 447.26205811 -381.86257935 446.26611328 C-383.78598361 431.39037089 -383.94496809 416.53915925 -383.91723633 401.55859375 C-383.91261044 398.85204423 -383.91952438 396.14594474 -383.93774414 393.43945312 C-384.05294505 376.14634445 -383.31904698 359.33326167 -380.6015625 342.23828125 C-380.44099869 341.19187469 -380.44099869 341.19187469 -380.27719116 340.12432861 C-379.68590963 336.29336429 -379.0146756 332.48340209 -378.2890625 328.67578125 C-377.9792041 327.01832886 -377.9792041 327.01832886 -377.66308594 325.32739258 C-375.81296906 315.73624964 -373.42707234 306.32079286 -370.8359375 296.90625 C-370.12283778 294.30550337 -369.54098147 291.84947018 -369.125 289.1796875 C-368.37205735 284.9485993 -366.92205361 281.02753256 -365.4765625 276.98828125 C-365.01286255 275.67851318 -365.01286255 275.67851318 -364.53979492 274.34228516 C-361.63147374 266.19310302 -358.52624974 258.12594916 -355.33007812 250.0859375 C-354.72390307 248.54856054 -354.13684633 247.00366217 -353.5546875 245.45703125 C-350.78526747 238.1690838 -347.19981862 231.28587845 -343.66601562 224.34814453 C-342.62108824 222.27698342 -341.59970927 220.1959395 -340.5859375 218.109375 C-336.82444937 210.39717051 -332.80098768 203.03855888 -328.16796875 195.8125 C-326.4864085 193.26449073 -326.4864085 193.26449073 -325.6015625 190.23828125 C-324.9415625 190.23828125 -324.2815625 190.23828125 -323.6015625 190.23828125 C-323.5190625 189.52671875 -323.4365625 188.81515625 -323.3515625 188.08203125 C-322.42412445 184.56549529 -320.85547535 182.58697666 -318.6015625 179.73828125 C-317.76993201 178.66967989 -316.94056996 177.59930995 -316.11328125 176.52734375 C-315.69095215 175.98110352 -315.26862305 175.43486328 -314.83349609 174.87207031 C-312.93180586 172.35005069 -311.18036636 169.73125507 -309.4140625 167.11328125 C-305.61199561 161.57389031 -301.59750092 156.23183682 -297.4765625 150.92578125 C-296.90268799 150.18505371 -296.32881348 149.44432617 -295.73754883 148.68115234 C-285.35179857 135.4051053 -285.35179857 135.4051053 -280.6015625 132.23828125 C-280.1890625 131.51640625 -279.7765625 130.79453125 -279.3515625 130.05078125 C-276.30006076 125.14658202 -272.06202838 121.42490978 -267.6015625 117.80078125 C-264.44652335 115.10585198 -261.92593036 112.21631972 -259.3125 109.0078125 C-257.51859177 107.15246905 -255.9053101 106.34155278 -253.6015625 105.23828125 C-253.2715625 104.57828125 -252.9415625 103.91828125 -252.6015625 103.23828125 C-248.77276718 99.15328401 -244.57845863 95.62650595 -240.2265625 92.11328125 C-239.52249268 91.54416016 -238.81842285 90.97503906 -238.09301758 90.38867188 C-222.53504072 77.90192074 -206.11234891 65.7782431 -188.7109375 55.99609375 C-186.21786169 54.5866916 -183.75873121 53.14317637 -181.3046875 51.66796875 C-180.54816895 51.21510498 -179.79165039 50.76224121 -179.01220703 50.2956543 C-177.52646123 49.40519075 -176.04292844 48.51102063 -174.56201172 47.61254883 C-170.63322064 45.27235588 -166.97817835 43.62823012 -162.6015625 42.23828125 C-159.97621969 41.04937296 -157.41618028 39.73970283 -154.8515625 38.42578125 C-154.14999023 38.0712085 -153.44841797 37.71663574 -152.72558594 37.35131836 C-149.63739298 35.78982861 -146.55619225 34.215029 -143.4765625 32.63671875 C-142.6103125 32.19585937 -141.7440625 31.755 -140.8515625 31.30078125 C-140.11421875 30.92050781 -139.376875 30.54023438 -138.6171875 30.1484375 C-136.6015625 29.23828125 -136.6015625 29.23828125 -134.89038086 28.83349609 C-131.82703615 28.03686309 -128.92774086 26.91802713 -125.96484375 25.8046875 C-124.65177474 25.31553496 -123.33862091 24.82661005 -122.02539062 24.33789062 C-119.97534516 23.57245236 -117.92600501 22.80527956 -115.87817383 22.03393555 C-102.31919278 16.93434057 -102.31919278 16.93434057 -95.47973633 15.60791016 C-92.46860843 15.0153133 -89.55053618 14.08389793 -86.6015625 13.23828125 C-70.82729067 9.14329993 -55.03227903 5.76039757 -38.9140625 3.36328125 C-38.22427307 3.26018646 -37.53448364 3.15709167 -36.8237915 3.0508728 C-24.51837169 1.23045629 -12.44069077 0.08515092 0 0 Z M-168.6015625 249.23828125 C-168.6015625 249.89828125 -168.6015625 250.55828125 -168.6015625 251.23828125 C-169.21128906 251.3465625 -169.82101563 251.45484375 -170.44921875 251.56640625 C-174.93608943 252.9670265 -176.7802155 257.75380369 -178.92281151 261.62626648 C-184.13458088 272.98341345 -183.30437003 284.75626009 -183.24853516 297.0078125 C-183.25531868 299.51077916 -183.26422591 302.01374082 -183.27508545 304.51669312 C-183.29544455 310.58408497 -183.29256663 316.65104707 -183.27802224 322.7184217 C-183.26668603 327.65366633 -183.26521793 332.58882442 -183.27064133 337.52407837 C-183.27140749 338.22905608 -183.27217366 338.93403379 -183.27296304 339.66037446 C-183.27456182 341.09295204 -183.27618289 342.52552959 -183.277826 343.95810711 C-183.29205105 357.36122602 -183.27574192 370.76417335 -183.24882416 384.1672641 C-183.22648828 395.6438218 -183.23036932 407.12012655 -183.25341797 418.59667969 C-183.28023355 431.95496496 -183.29067806 445.31310022 -183.27535665 458.67140865 C-183.27376407 460.09843379 -183.27219221 461.52545895 -183.27064133 462.95248413 C-183.26986995 463.65443226 -183.26909857 464.35638039 -183.26830382 465.07959968 C-183.26400404 470.00343093 -183.27123598 474.92716627 -183.28303909 479.85098267 C-183.29860489 486.48977088 -183.28737137 493.12815791 -183.25856781 499.76692581 C-183.25198339 502.19642982 -183.25380906 504.62597418 -183.26488113 507.05546188 C-183.32946051 522.67113238 -182.85711722 535.06545952 -173.03125 547.9453125 C-171.55199501 549.57365831 -171.55199501 549.57365831 -168.6015625 549.23828125 C-168.6015625 549.89828125 -168.6015625 550.55828125 -168.6015625 551.23828125 C-167.2815625 551.56828125 -165.9615625 551.89828125 -164.6015625 552.23828125 C-164.6015625 552.89828125 -164.6015625 553.55828125 -164.6015625 554.23828125 C-162.70823716 555.05660847 -160.81178517 555.86770393 -158.9140625 556.67578125 C-157.33044922 557.35447266 -157.33044922 557.35447266 -155.71484375 558.046875 C-151.04492869 559.83398177 -146.88510295 560.36347296 -141.90013885 560.37250233 C-140.75564695 560.37696017 -139.61115504 560.38141801 -138.43198156 560.38601094 C-137.17918229 560.38582658 -135.92638301 560.38564222 -134.63562012 560.38545227 C-133.28763425 560.38875327 -131.93964937 560.39247933 -130.59166574 560.39659375 C-126.88834275 560.4065952 -123.18503596 560.41032756 -119.48170137 560.41298306 C-115.48694962 560.41689166 -111.49221063 560.42646965 -107.49746704 560.43519592 C-97.85016719 560.45494528 -88.2028663 560.46502489 -78.55555129 560.47392371 C-74.00959311 560.47830937 -69.46363609 560.48367548 -64.91767883 560.48891258 C-49.80072013 560.5059238 -34.68376215 560.52041702 -19.56679535 560.52766132 C-15.64511616 560.52957114 -11.72343698 560.53149148 -7.80175781 560.53344727 C-6.33973166 560.53417288 -6.33973166 560.53417288 -4.84816962 560.53491315 C10.93402409 560.54320991 26.71614192 560.56854134 42.49830252 560.60102794 C58.71081302 560.6341276 74.92328499 560.65211274 91.13582945 560.65530556 C100.23477097 560.65746803 109.33360185 560.66617808 118.43251038 560.69176674 C126.18310277 560.71351352 133.93355765 560.72150466 141.6841771 560.71179996 C145.63519978 560.70726666 149.58593897 560.70908444 153.53692245 560.7285614 C157.16192584 560.7462762 160.78644067 560.74512895 164.41144985 560.72966411 C166.32729194 560.72619042 168.24313965 560.74225211 170.15890932 560.75926858 C179.8448332 560.68794787 188.790597 558.82015297 197.3984375 554.23828125 C197.3984375 553.57828125 197.3984375 552.91828125 197.3984375 552.23828125 C198.1203125 552.01140625 198.8421875 551.78453125 199.5859375 551.55078125 C204.18540615 549.40436255 207.58419 546.02129739 209.3984375 541.23828125 C209.3984375 540.57828125 209.3984375 539.91828125 209.3984375 539.23828125 C210.0584375 539.23828125 210.7184375 539.23828125 211.3984375 539.23828125 C214.57516704 531.74547415 215.98311835 525.39978464 215.9131012 517.28421021 C215.92351949 515.71578662 215.92351949 515.71578662 215.93414825 514.11567771 C215.95231828 510.64216289 215.9421815 507.16933881 215.93188477 503.69580078 C215.93894829 501.19313042 215.94769512 498.69046432 215.95799255 496.18780518 C215.97811984 490.1135168 215.97952604 484.03949566 215.97136701 477.96520127 C215.96504792 473.02419538 215.96622147 468.08324397 215.97263908 463.14223862 C215.97399157 462.08436558 215.97399157 462.08436558 215.97537137 461.00512137 C215.97722272 459.57206074 215.97908528 458.13900012 215.98095893 456.70593952 C215.99751012 443.28950577 215.98884142 429.8731774 215.97197335 416.45675002 C215.95728215 404.2056052 215.97190128 391.95470577 216.00074352 379.70359255 C216.03019761 367.0978665 216.04109211 354.49225345 216.03156132 341.88649452 C216.03053885 340.45831484 216.02954424 339.03013513 216.0285778 337.60195541 C216.02786322 336.54814825 216.02786322 336.54814825 216.0271342 335.47305206 C216.02497781 330.54422754 216.03473275 325.61551097 216.04934883 320.68671036 C216.06878646 314.03975675 216.06169111 307.39318395 216.03714943 300.74622345 C216.03215594 298.31349029 216.03559302 295.88072223 216.04829788 293.44801712 C216.11926638 278.685839 216.17880661 265.00105468 206.23828125 253.01171875 C195.2149043 242.38621316 181.26882462 239.62294976 166.47045898 239.73034668 C165.11556297 239.72572557 163.76067199 239.71936461 162.40579128 239.7114377 C158.72040507 239.69488689 155.03543825 239.70292485 151.3500514 239.71538258 C147.36087305 239.72448982 143.37176328 239.71043541 139.38259888 239.69946289 C131.58273679 239.68173323 123.7830292 239.68549278 115.98316121 239.69711345 C109.64060661 239.70616945 103.29809511 239.70736243 96.95553589 239.70301819 C96.05073217 239.70240526 95.14592845 239.70179232 94.21370643 239.70116082 C92.37526487 239.69988184 90.53682332 239.69858498 88.69838178 239.69727045 C71.48396743 239.68588092 54.26963847 239.69895278 37.05523813 239.72047192 C22.30403529 239.73834142 7.55295838 239.73523685 -7.19824219 239.71679688 C-24.35362157 239.69536137 -41.50892623 239.68697941 -58.66431713 239.69924593 C-60.49576504 239.70052004 -62.32721296 239.70177753 -64.15866089 239.70301819 C-65.51010699 239.70394384 -65.51010699 239.70394384 -66.88885504 239.70488819 C-73.21930752 239.70833306 -79.54971237 239.70253142 -85.88015747 239.69309998 C-93.60130121 239.68184878 -101.32228241 239.68498536 -109.04340768 239.70622295 C-112.9782672 239.71669157 -116.91285632 239.72092736 -120.84771347 239.70762634 C-124.45762149 239.69560886 -128.06701134 239.70241659 -131.67687309 239.72353655 C-133.58435991 239.73004237 -135.4918834 239.71715064 -137.39933109 239.70330763 C-148.84380602 239.80618173 -159.3309345 242.3307545 -168.6015625 249.23828125 Z " fill="#000000" transform="translate(383.6015625,-0.23828125)"/>
<path d="M0 0 C4.74534016 1.58178005 7.82228032 2.91540901 11.9375 5.5 C12.4838208 5.84095703 13.0301416 6.18191406 13.59301758 6.53320312 C18.86005791 9.84742915 24.0227949 13.32379776 29.15014648 16.84960938 C32.29052134 19.21142253 32.29052134 19.21142253 36 20 C36 20.66 36 21.32 36 22 C36.99 22 37.98 22 39 22 C39 22.66 39 23.32 39 24 C39.67804688 24.24363281 40.35609375 24.48726563 41.0546875 24.73828125 C44.60373106 26.2586275 47.8382949 28.17963419 51.125 30.1875 C52.12067993 30.79078125 52.12067993 30.79078125 53.13647461 31.40625 C58.81017716 34.85605828 64.4215684 38.39823954 70 42 C72.22874444 43.43816076 74.45771431 44.87595559 76.6875 46.3125 C77.55375 46.8705835 77.55375 46.8705835 78.4375 47.43994141 C83.12454173 50.45249143 87.8377616 53.42197061 92.5625 56.375 C93.22918701 56.79177002 93.89587402 57.20854004 94.58276367 57.63793945 C96.38614068 58.76250051 98.19249191 59.88209497 100 61 C100.91652344 61.56976563 101.83304687 62.13953125 102.77734375 62.7265625 C105.05228122 64.12699865 105.05228122 64.12699865 108 65 C108 65.66 108 66.32 108 67 C108.58612061 67.11988281 109.17224121 67.23976563 109.77612305 67.36328125 C112.07446185 68.02131919 113.60230373 68.86393369 115.58203125 70.1875 C116.25935303 70.63448242 116.9366748 71.08146484 117.63452148 71.54199219 C118.71262085 72.26370605 118.71262085 72.26370605 119.8125 73 C125.44853395 76.7173454 131.11921252 80.32469362 136.9375 83.75 C142.19785754 86.84916285 147.23211397 90.15638569 152.14453125 93.78515625 C153.90924374 95.18259042 153.90924374 95.18259042 156 95 C156 95.66 156 96.32 156 97 C161.06016728 98.0762299 161.06016728 98.0762299 166 97 C166.33 96.34 166.66 95.68 167 95 C168.36297329 94.09432058 169.76738145 93.25065108 171.1875 92.4375 C175.39867719 89.9705267 179.53068182 87.40525767 183.625 84.75 C189.59623272 80.88235462 195.61665099 77.09947853 201.67041016 73.36230469 C204.3038354 71.72831593 206.83512719 70.12974527 209.2734375 68.2109375 C211 67 211 67 214 67 C214.33 66.34 214.66 65.68 215 65 C216.68054442 64.00789643 218.36509631 63.0216087 220.07421875 62.07958984 C222.96957441 60.45645816 225.72221629 58.62798007 228.5 56.8125 C233.51827284 53.54994267 238.59767609 50.42101152 243.75 47.375 C247.97605211 44.87405339 252.07677821 42.31426483 256.0625 39.4375 C261.05749218 35.83976694 266.32856565 32.87972202 271.703125 29.89453125 C275.05151818 28.02506416 275.05151818 28.02506416 278.296875 25.76171875 C281 24 281 24 283 24 C283 23.34 283 22.68 283 22 C283.99 22 284.98 22 286 22 C286.33 21.34 286.66 20.68 287 20 C288.28281511 19.21979127 289.6026369 18.49987238 290.9375 17.8125 C294.37095847 15.96620629 297.53210127 13.9756865 300.6875 11.6875 C304.8295015 8.726132 309.0887375 6.09540389 313.5 3.5625 C314.11190186 3.20824951 314.72380371 2.85399902 315.35424805 2.48901367 C319.74934654 0 319.74934654 0 322 0 C322 66 322 132 322 200 C215.74 200 109.48 200 0 200 C0 134 0 68 0 0 Z " fill="#000000" transform="translate(239,320)"/>
<path d="M0 0 C105.6 0 211.2 0 320 0 C318.5700176 2.8599648 316.56974733 3.41988975 313.75 4.875 C310.82551592 6.38466611 308.22022126 7.82242884 305.65527344 9.890625 C301.22248688 13.41207368 296.33657469 16.19648723 291.5 19.125 C290.46746094 19.75792969 289.43492187 20.39085937 288.37109375 21.04296875 C287.37207031 21.65011719 286.37304688 22.25726563 285.34375 22.8828125 C284.43818359 23.43340332 283.53261719 23.98399414 282.59960938 24.55126953 C280.11754868 25.93449156 277.66043883 27.01103164 275 28 C275 28.66 275 29.32 275 30 C274.39414062 30.27972656 273.78828125 30.55945313 273.1640625 30.84765625 C268.73513924 32.96672569 264.59703495 35.16858882 260.625 38.0625 C255.48794868 41.77761551 250.11666634 45.04769638 244.6875 48.3125 C243.81496582 48.84045166 242.94243164 49.36840332 242.04345703 49.91235352 C241.2079834 50.41178467 240.37250977 50.91121582 239.51171875 51.42578125 C238.76365967 51.87348877 238.01560059 52.32119629 237.24487305 52.7824707 C234.88814246 54.06066705 232.50573521 55.05204052 230 56 C230 56.66 230 57.32 230 58 C229.236875 58.350625 228.47375 58.70125 227.6875 59.0625 C223.62135029 61.09557485 219.86395181 63.59031417 216.046875 66.05078125 C212.95006707 68.03194427 209.82457514 69.95832361 206.6875 71.875 C202.08744647 74.69491447 197.53027831 77.57019408 193 80.5 C187.42191019 84.10744295 181.79279101 87.61986614 176.11328125 91.06640625 C174.02150725 92.36556325 171.95600195 93.70790742 169.91796875 95.08984375 C168.47357422 96.06630859 168.47357422 96.06630859 167 97.0625 C166.154375 97.65160156 165.30875 98.24070312 164.4375 98.84765625 C161.36433909 100.30051277 160.23556957 99.90172586 157 99 C154.5715332 97.80419922 154.5715332 97.80419922 152.05078125 96.3046875 C151.11943359 95.75296875 150.18808594 95.20125 149.22851562 94.6328125 C148.26623047 94.05273438 147.30394531 93.47265625 146.3125 92.875 C145.36955078 92.318125 144.42660156 91.76125 143.45507812 91.1875 C137.9512977 87.90414508 132.67852605 84.41064522 127.45825195 80.69628906 C123.40873624 77.90196637 119.17939829 75.42594849 114.9375 72.9375 C109.16555355 69.54039926 103.49743668 66.06788967 97.96728516 62.28686523 C95.40169396 60.60862855 92.7810445 59.283559 90 58 C90 57.34 90 56.68 90 56 C89.28070313 55.73703125 88.56140625 55.4740625 87.8203125 55.203125 C84.92025615 53.96598185 82.50091082 52.49015583 79.875 50.75 C76.1967067 48.36009286 72.51079551 46.15879356 68.625 44.125 C63.06033949 41.1667753 58.04473926 37.6367404 52.9453125 33.953125 C50.32161501 32.21327255 47.96110824 31.02710027 45 30 C45 29.34 45 28.68 45 28 C44.32195312 27.75636719 43.64390625 27.51273437 42.9453125 27.26171875 C39.39629253 25.74138261 36.16161314 23.82049592 32.875 21.8125 C32.21411377 21.4117627 31.55322754 21.01102539 30.87231445 20.59814453 C22.44000304 15.46791851 14.14955212 10.23014867 6.19140625 4.3828125 C4.07563685 3.04772806 2.44484093 2.43439087 0 2 C0 1.34 0 0.68 0 0 Z " fill="#000000" transform="translate(240,280)"/>
<path d="" fill="#000000" transform="translate(0,0)"/>
<path d="" fill="#000000" transform="translate(0,0)"/>
<path d="" fill="#000000" transform="translate(0,0)"/>
<path d="" fill="#000000" transform="translate(0,0)"/>
<path d="" fill="#000000" transform="translate(0,0)"/>
<path d="" fill="#000000" transform="translate(0,0)"/>
<path d="" fill="#000000" transform="translate(0,0)"/>
<path d="" fill="#000000" transform="translate(0,0)"/>
<path d="" fill="#000000" transform="translate(0,0)"/>
<path d="" fill="#000000" transform="translate(0,0)"/>
<path d="" fill="#000000" transform="translate(0,0)"/>
<path d="" fill="#000000" transform="translate(0,0)"/>
<path d="" fill="#000000" transform="translate(0,0)"/>
<path d="" fill="#000000" transform="translate(0,0)"/>
<path d="" fill="#000000" transform="translate(0,0)"/>
<path d="" fill="#000000" transform="translate(0,0)"/>
<path d="" fill="#000000" transform="translate(0,0)"/>
<path d="" fill="#000000" transform="translate(0,0)"/>
<path d="" fill="#000000" transform="translate(0,0)"/>
<path d="" fill="#000000" transform="translate(0,0)"/>
<path d="" fill="#000000" transform="translate(0,0)"/>
<path d="" fill="#000000" transform="translate(0,0)"/>
<path d="" fill="#000000" transform="translate(0,0)"/>
<path d="" fill="#000000" transform="translate(0,0)"/>
<path d="" fill="#000000" transform="translate(0,0)"/>
<path d="" fill="#000000" transform="translate(0,0)"/>
<path d="" fill="#000000" transform="translate(0,0)"/>
<path d="" fill="#000000" transform="translate(0,0)"/>
<path d="" fill="#000000" transform="translate(0,0)"/>
<path d="" fill="#000000" transform="translate(0,0)"/>
<path d="" fill="#000000" transform="translate(0,0)"/>
<path d="" fill="#000000" transform="translate(0,0)"/>
<path d="" fill="#000000" transform="translate(0,0)"/>
<path d="" fill="#000000" transform="translate(0,0)"/>
<path d="" fill="#000000" transform="translate(0,0)"/>
<path d="" fill="#000000" transform="translate(0,0)"/>
<path d="" fill="#000000" transform="translate(0,0)"/>
<path d="" fill="#000000" transform="translate(0,0)"/>
<path d="" fill="#000000" transform="translate(0,0)"/>
<path d="" fill="#000000" transform="translate(0,0)"/>
<path d="" fill="#000000" transform="translate(0,0)"/>
<path d="" fill="#000000" transform="translate(0,0)"/>
<path d="" fill="#000000" transform="translate(0,0)"/>
<path d="" fill="#000000" transform="translate(0,0)"/>
<path d="" fill="#000000" transform="translate(0,0)"/>
<path d="" fill="#000000" transform="translate(0,0)"/>
<path d="" fill="#000000" transform="translate(0,0)"/>
<path d="" fill="#000000" transform="translate(0,0)"/>
<path d="" fill="#000000" transform="translate(0,0)"/>
<path d="" fill="#000000" transform="translate(0,0)"/>
<path d="" fill="#000000" transform="translate(0,0)"/>
<path d="" fill="#000000" transform="translate(0,0)"/>
<path d="" fill="#000000" transform="translate(0,0)"/>
<path d="" fill="#000000" transform="translate(0,0)"/>
<path d="" fill="#000000" transform="translate(0,0)"/>
<path d="" fill="#000000" transform="translate(0,0)"/>
<path d="" fill="#000000" transform="translate(0,0)"/>
<path d="" fill="#000000" transform="translate(0,0)"/>
<path d="" fill="#000000" transform="translate(0,0)"/>
<path d="" fill="#000000" transform="translate(0,0)"/>
<path d="" fill="#000000" transform="translate(0,0)"/>
<path d="" fill="#000000" transform="translate(0,0)"/>
<path d="" fill="#000000" transform="translate(0,0)"/>
<path d="" fill="#000000" transform="translate(0,0)"/>
<path d="" fill="#000000" transform="translate(0,0)"/>
<path d="" fill="#000000" transform="translate(0,0)"/>
<path d="" fill="#000000" transform="translate(0,0)"/>
<path d="" fill="#000000" transform="translate(0,0)"/>
<path d="" fill="#000000" transform="translate(0,0)"/>
<path d="" fill="#000000" transform="translate(0,0)"/>
<path d="" fill="#000000" transform="translate(0,0)"/>
<path d="" fill="#000000" transform="translate(0,0)"/>
<path d="" fill="#000000" transform="translate(0,0)"/>
<path d="" fill="#000000" transform="translate(0,0)"/>
<path d="" fill="#000000" transform="translate(0,0)"/>
<path d="" fill="#000000" transform="translate(0,0)"/>
<path d="" fill="#000000" transform="translate(0,0)"/>
<path d="" fill="#000000" transform="translate(0,0)"/>
<path d="" fill="#000000" transform="translate(0,0)"/>
<path d="" fill="#000000" transform="translate(0,0)"/>
<path d="" fill="#000000" transform="translate(0,0)"/>
<path d="" fill="#000000" transform="translate(0,0)"/>
<path d="" fill="#000000" transform="translate(0,0)"/>
<path d="" fill="#000000" transform="translate(0,0)"/>
<path d="" fill="#000000" transform="translate(0,0)"/>
<path d="" fill="#000000" transform="translate(0,0)"/>
<path d="" fill="#000000" transform="translate(0,0)"/>
<path d="" fill="#000000" transform="translate(0,0)"/>
<path d="" fill="#000000" transform="translate(0,0)"/>
<path d="" fill="#000000" transform="translate(0,0)"/>
<path d="" fill="#000000" transform="translate(0,0)"/>
<path d="" fill="#000000" transform="translate(0,0)"/>
<path d="" fill="#000000" transform="translate(0,0)"/>
<path d="" fill="#000000" transform="translate(0,0)"/>
<path d="" fill="#000000" transform="translate(0,0)"/>
<path d="" fill="#000000" transform="translate(0,0)"/>
<path d="" fill="#000000" transform="translate(0,0)"/>
<path d="" fill="#000000" transform="translate(0,0)"/>
<path d="" fill="#000000" transform="translate(0,0)"/>
<path d="" fill="#000000" transform="translate(0,0)"/>
<path d="" fill="#000000" transform="translate(0,0)"/>
<path d="" fill="#000000" transform="translate(0,0)"/>
<path d="" fill="#000000" transform="translate(0,0)"/>
<path d="" fill="#000000" transform="translate(0,0)"/>
<path d="" fill="#000000" transform="translate(0,0)"/>
<path d="" fill="#000000" transform="translate(0,0)"/>
<path d="" fill="#000000" transform="translate(0,0)"/>
<path d="" fill="#000000" transform="translate(0,0)"/>
<path d="" fill="#000000" transform="translate(0,0)"/>
<path d="" fill="#000000" transform="translate(0,0)"/>
<path d="" fill="#000000" transform="translate(0,0)"/>
<path d="" fill="#000000" transform="translate(0,0)"/>
<path d="" fill="#000000" transform="translate(0,0)"/>
<path d="" fill="#000000" transform="translate(0,0)"/>
<path d="" fill="#000000" transform="translate(0,0)"/>
<path d="" fill="#000000" transform="translate(0,0)"/>
<path d="" fill="#000000" transform="translate(0,0)"/>
<path d="" fill="#000000" transform="translate(0,0)"/>
<path d="" fill="#000000" transform="translate(0,0)"/>
<path d="" fill="#000000" transform="translate(0,0)"/>
<path d="" fill="#000000" transform="translate(0,0)"/>
<path d="" fill="#000000" transform="translate(0,0)"/>
<path d="" fill="#000000" transform="translate(0,0)"/>
<path d="" fill="#000000" transform="translate(0,0)"/>
<path d="" fill="#000000" transform="translate(0,0)"/>
<path d="" fill="#000000" transform="translate(0,0)"/>
<path d="" fill="#000000" transform="translate(0,0)"/>
<path d="" fill="#000000" transform="translate(0,0)"/>
<path d="" fill="#000000" transform="translate(0,0)"/>
<path d="" fill="#000000" transform="translate(0,0)"/>
<path d="" fill="#000000" transform="translate(0,0)"/>
<path d="" fill="#000000" transform="translate(0,0)"/>
<path d="" fill="#000000" transform="translate(0,0)"/>
<path d="" fill="#000000" transform="translate(0,0)"/>
<path d="" fill="#000000" transform="translate(0,0)"/>
<path d="" fill="#000000" transform="translate(0,0)"/>
<path d="" fill="#000000" transform="translate(0,0)"/>
<path d="" fill="#000000" transform="translate(0,0)"/>
<path d="" fill="#000000" transform="translate(0,0)"/>
<path d="" fill="#000000" transform="translate(0,0)"/>
<path d="" fill="#000000" transform="translate(0,0)"/>
<path d="" fill="#000000" transform="translate(0,0)"/>
<path d="" fill="#000000" transform="translate(0,0)"/>
<path d="" fill="#000000" transform="translate(0,0)"/>
<path d="" fill="#000000" transform="translate(0,0)"/>
<path d="" fill="#000000" transform="translate(0,0)"/>
<path d="" fill="#000000" transform="translate(0,0)"/>
<path d="" fill="#000000" transform="translate(0,0)"/>
<path d="" fill="#000000" transform="translate(0,0)"/>
<path d="" fill="#000000" transform="translate(0,0)"/>
<path d="" fill="#000000" transform="translate(0,0)"/>
<path d="" fill="#000000" transform="translate(0,0)"/>
<path d="" fill="#000000" transform="translate(0,0)"/>
<path d="" fill="#000000" transform="translate(0,0)"/>
<path d="" fill="#000000" transform="translate(0,0)"/>
<path d="" fill="#000000" transform="translate(0,0)"/>
<path d="" fill="#000000" transform="translate(0,0)"/>
<path d="" fill="#000000" transform="translate(0,0)"/>
<path d="" fill="#000000" transform="translate(0,0)"/>
<path d="" fill="#000000" transform="translate(0,0)"/>
<path d="" fill="#000000" transform="translate(0,0)"/>
<path d="" fill="#000000" transform="translate(0,0)"/>
<path d="" fill="#000000" transform="translate(0,0)"/>
<path d="" fill="#000000" transform="translate(0,0)"/>
<path d="" fill="#000000" transform="translate(0,0)"/>
<path d="" fill="#000000" transform="translate(0,0)"/>
<path d="" fill="#000000" transform="translate(0,0)"/>
<path d="" fill="#000000" transform="translate(0,0)"/>
<path d="" fill="#000000" transform="translate(0,0)"/>
<path d="" fill="#000000" transform="translate(0,0)"/>
<path d="" fill="#000000" transform="translate(0,0)"/>
<path d="" fill="#000000" transform="translate(0,0)"/>
<path d="" fill="#000000" transform="translate(0,0)"/>
<path d="" fill="#000000" transform="translate(0,0)"/>
<path d="" fill="#000000" transform="translate(0,0)"/>
<path d="" fill="#000000" transform="translate(0,0)"/>
<path d="" fill="#000000" transform="translate(0,0)"/>
<path d="" fill="#000000" transform="translate(0,0)"/>
<path d="" fill="#000000" transform="translate(0,0)"/>
<path d="" fill="#000000" transform="translate(0,0)"/>
<path d="" fill="#000000" transform="translate(0,0)"/>
<path d="" fill="#000000" transform="translate(0,0)"/>
<path d="" fill="#000000" transform="translate(0,0)"/>
<path d="" fill="#000000" transform="translate(0,0)"/>
<path d="" fill="#000000" transform="translate(0,0)"/>
<path d="" fill="#000000" transform="translate(0,0)"/>
<path d="" fill="#000000" transform="translate(0,0)"/>
<path d="" fill="#000000" transform="translate(0,0)"/>
<path d="" fill="#000000" transform="translate(0,0)"/>
<path d="" fill="#000000" transform="translate(0,0)"/>
<path d="" fill="#000000" transform="translate(0,0)"/>
<path d="" fill="#000000" transform="translate(0,0)"/>
<path d="" fill="#000000" transform="translate(0,0)"/>
<path d="" fill="#000000" transform="translate(0,0)"/>
<path d="" fill="#000000" transform="translate(0,0)"/>
<path d="" fill="#000000" transform="translate(0,0)"/>
<path d="" fill="#000000" transform="translate(0,0)"/>
<path d="" fill="#000000" transform="translate(0,0)"/>
<path d="" fill="#000000" transform="translate(0,0)"/>
<path d="" fill="#000000" transform="translate(0,0)"/>
<path d="" fill="#000000" transform="translate(0,0)"/>
<path d="" fill="#000000" transform="translate(0,0)"/>
<path d="" fill="#000000" transform="translate(0,0)"/>
<path d="" fill="#000000" transform="translate(0,0)"/>
<path d="" fill="#000000" transform="translate(0,0)"/>
<path d="" fill="#000000" transform="translate(0,0)"/>
<path d="" fill="#000000" transform="translate(0,0)"/>
<path d="" fill="#000000" transform="translate(0,0)"/>
<path d="" fill="#000000" transform="translate(0,0)"/>
<path d="" fill="#000000" transform="translate(0,0)"/>
<path d="" fill="#000000" transform="translate(0,0)"/>
<path d="" fill="#000000" transform="translate(0,0)"/>
<path d="" fill="#000000" transform="translate(0,0)"/>
<path d="" fill="#000000" transform="translate(0,0)"/>
<path d="" fill="#000000" transform="translate(0,0)"/>
<path d="" fill="#000000" transform="translate(0,0)"/>
<path d="" fill="#000000" transform="translate(0,0)"/>
<path d="" fill="#000000" transform="translate(0,0)"/>
<path d="" fill="#000000" transform="translate(0,0)"/>
<path d="" fill="#000000" transform="translate(0,0)"/>
<path d="" fill="#000000" transform="translate(0,0)"/>
<path d="" fill="#000000" transform="translate(0,0)"/>
<path d="" fill="#000000" transform="translate(0,0)"/>
<path d="" fill="#000000" transform="translate(0,0)"/>
<path d="" fill="#000000" transform="translate(0,0)"/>
<path d="" fill="#000000" transform="translate(0,0)"/>
<path d="" fill="#000000" transform="translate(0,0)"/>
<path d="" fill="#000000" transform="translate(0,0)"/>
<path d="" fill="#000000" transform="translate(0,0)"/>
<path d="" fill="#000000" transform="translate(0,0)"/>
<path d="" fill="#000000" transform="translate(0,0)"/>
<path d="" fill="#000000" transform="translate(0,0)"/>
<path d="" fill="#000000" transform="translate(0,0)"/>
<path d="" fill="#000000" transform="translate(0,0)"/>
<path d="" fill="#000000" transform="translate(0,0)"/>
<path d="" fill="#000000" transform="translate(0,0)"/>
<path d="" fill="#000000" transform="translate(0,0)"/>
<path d="" fill="#000000" transform="translate(0,0)"/>
<path d="" fill="#000000" transform="translate(0,0)"/>
<path d="" fill="#000000" transform="translate(0,0)"/>
<path d="" fill="#000000" transform="translate(0,0)"/>
<path d="" fill="#000000" transform="translate(0,0)"/>
<path d="" fill="#000000" transform="translate(0,0)"/>
<path d="" fill="#000000" transform="translate(0,0)"/>
<path d="" fill="#000000" transform="translate(0,0)"/>
<path d="" fill="#000000" transform="translate(0,0)"/>
<path d="" fill="#000000" transform="translate(0,0)"/>
<path d="" fill="#000000" transform="translate(0,0)"/>
<path d="" fill="#000000" transform="translate(0,0)"/>
<path d="" fill="#000000" transform="translate(0,0)"/>
<path d="" fill="#000000" transform="translate(0,0)"/>
<path d="" fill="#000000" transform="translate(0,0)"/>
<path d="" fill="#000000" transform="translate(0,0)"/>
<path d="" fill="#000000" transform="translate(0,0)"/>
<path d="" fill="#000000" transform="translate(0,0)"/>
<path d="" fill="#000000" transform="translate(0,0)"/>
<path d="" fill="#000000" transform="translate(0,0)"/>
<path d="" fill="#000000" transform="translate(0,0)"/>
<path d="" fill="#000000" transform="translate(0,0)"/>
<path d="" fill="#000000" transform="translate(0,0)"/>
<path d="" fill="#000000" transform="translate(0,0)"/>
<path d="" fill="#000000" transform="translate(0,0)"/>
<path d="" fill="#000000" transform="translate(0,0)"/>
<path d="" fill="#000000" transform="translate(0,0)"/>
<path d="" fill="#000000" transform="translate(0,0)"/>
<path d="" fill="#000000" transform="translate(0,0)"/>
<path d="" fill="#000000" transform="translate(0,0)"/>
<path d="" fill="#000000" transform="translate(0,0)"/>
<path d="" fill="#000000" transform="translate(0,0)"/>
<path d="" fill="#000000" transform="translate(0,0)"/>
<path d="" fill="#000000" transform="translate(0,0)"/>
<path d="" fill="#000000" transform="translate(0,0)"/>
<path d="" fill="#000000" transform="translate(0,0)"/>
<path d="" fill="#000000" transform="translate(0,0)"/>
<path d="" fill="#000000" transform="translate(0,0)"/>
<path d="" fill="#000000" transform="translate(0,0)"/>
<path d="" fill="#000000" transform="translate(0,0)"/>
<path d="" fill="#000000" transform="translate(0,0)"/>
<path d="" fill="#000000" transform="translate(0,0)"/>
<path d="" fill="#000000" transform="translate(0,0)"/>
<path d="" fill="#000000" transform="translate(0,0)"/>
<path d="" fill="#000000" transform="translate(0,0)"/>
<path d="" fill="#000000" transform="translate(0,0)"/>
<path d="" fill="#000000" transform="translate(0,0)"/>
<path d="" fill="#000000" transform="translate(0,0)"/>
<path d="" fill="#000000" transform="translate(0,0)"/>
<path d="" fill="#000000" transform="translate(0,0)"/>
<path d="" fill="#000000" transform="translate(0,0)"/>
<path d="" fill="#000000" transform="translate(0,0)"/>
<path d="" fill="#000000" transform="translate(0,0)"/>
<path d="" fill="#000000" transform="translate(0,0)"/>
<path d="" fill="#000000" transform="translate(0,0)"/>
<path d="" fill="#000000" transform="translate(0,0)"/>
<path d="" fill="#000000" transform="translate(0,0)"/>
<path d="" fill="#000000" transform="translate(0,0)"/>
<path d="" fill="#000000" transform="translate(0,0)"/>
<path d="" fill="#000000" transform="translate(0,0)"/>
<path d="" fill="#000000" transform="translate(0,0)"/>
<path d="" fill="#000000" transform="translate(0,0)"/>
<path d="" fill="#000000" transform="translate(0,0)"/>
<path d="" fill="#000000" transform="translate(0,0)"/>
<path d="" fill="#000000" transform="translate(0,0)"/>
<path d="" fill="#000000" transform="translate(0,0)"/>
<path d="" fill="#000000" transform="translate(0,0)"/>
<path d="" fill="#000000" transform="translate(0,0)"/>
<path d="" fill="#000000" transform="translate(0,0)"/>
<path d="" fill="#000000" transform="translate(0,0)"/>
<path d="" fill="#000000" transform="translate(0,0)"/>
<path d="" fill="#000000" transform="translate(0,0)"/>
<path d="" fill="#000000" transform="translate(0,0)"/>
<path d="" fill="#000000" transform="translate(0,0)"/>
<path d="" fill="#000000" transform="translate(0,0)"/>
<path d="" fill="#000000" transform="translate(0,0)"/>
<path d="" fill="#000000" transform="translate(0,0)"/>
<path d="" fill="#000000" transform="translate(0,0)"/>
<path d="" fill="#000000" transform="translate(0,0)"/>
<path d="" fill="#000000" transform="translate(0,0)"/>
<path d="" fill="#000000" transform="translate(0,0)"/>
<path d="" fill="#000000" transform="translate(0,0)"/>
<path d="" fill="#000000" transform="translate(0,0)"/>
<path d="" fill="#000000" transform="translate(0,0)"/>
<path d="" fill="#000000" transform="translate(0,0)"/>
<path d="" fill="#000000" transform="translate(0,0)"/>
<path d="" fill="#000000" transform="translate(0,0)"/>
<path d="" fill="#000000" transform="translate(0,0)"/>
<path d="" fill="#000000" transform="translate(0,0)"/>
<path d="" fill="#000000" transform="translate(0,0)"/>
<path d="" fill="#000000" transform="translate(0,0)"/>
<path d="" fill="#000000" transform="translate(0,0)"/>
<path d="" fill="#000000" transform="translate(0,0)"/>
<path d="" fill="#000000" transform="translate(0,0)"/>
<path d="" fill="#000000" transform="translate(0,0)"/>
<path d="" fill="#000000" transform="translate(0,0)"/>
<path d="" fill="#000000" transform="translate(0,0)"/>
<path d="" fill="#000000" transform="translate(0,0)"/>
<path d="" fill="#000000" transform="translate(0,0)"/>
<path d="" fill="#000000" transform="translate(0,0)"/>
<path d="" fill="#000000" transform="translate(0,0)"/>
<path d="" fill="#000000" transform="translate(0,0)"/>
<path d="" fill="#000000" transform="translate(0,0)"/>
<path d="" fill="#000000" transform="translate(0,0)"/>
<path d="" fill="#000000" transform="translate(0,0)"/>
<path d="" fill="#000000" transform="translate(0,0)"/>
<path d="" fill="#000000" transform="translate(0,0)"/>
<path d="" fill="#000000" transform="translate(0,0)"/>
<path d="" fill="#000000" transform="translate(0,0)"/>
<path d="" fill="#000000" transform="translate(0,0)"/>
<path d="" fill="#000000" transform="translate(0,0)"/>
<path d="" fill="#000000" transform="translate(0,0)"/>
<path d="" fill="#000000" transform="translate(0,0)"/>
<path d="" fill="#000000" transform="translate(0,0)"/>
<path d="" fill="#000000" transform="translate(0,0)"/>
<path d="" fill="#000000" transform="translate(0,0)"/>
<path d="" fill="#000000" transform="translate(0,0)"/>
<path d="" fill="#000000" transform="translate(0,0)"/>
<path d="" fill="#000000" transform="translate(0,0)"/>
<path d="" fill="#000000" transform="translate(0,0)"/>
<path d="" fill="#000000" transform="translate(0,0)"/>
<path d="" fill="#000000" transform="translate(0,0)"/>
<path d="" fill="#000000" transform="translate(0,0)"/>
<path d="" fill="#000000" transform="translate(0,0)"/>
<path d="" fill="#000000" transform="translate(0,0)"/>
<path d="" fill="#000000" transform="translate(0,0)"/>
<path d="" fill="#000000" transform="translate(0,0)"/>
<path d="" fill="#000000" transform="translate(0,0)"/>
<path d="" fill="#000000" transform="translate(0,0)"/>
<path d="" fill="#000000" transform="translate(0,0)"/>
<path d="" fill="#000000" transform="translate(0,0)"/>
<path d="" fill="#000000" transform="translate(0,0)"/>
<path d="" fill="#000000" transform="translate(0,0)"/>
<path d="" fill="#000000" transform="translate(0,0)"/>
<path d="" fill="#000000" transform="translate(0,0)"/>
<path d="" fill="#000000" transform="translate(0,0)"/>
<path d="" fill="#000000" transform="translate(0,0)"/>
<path d="" fill="#000000" transform="translate(0,0)"/>
<path d="" fill="#000000" transform="translate(0,0)"/>
<path d="" fill="#000000" transform="translate(0,0)"/>
<path d="" fill="#000000" transform="translate(0,0)"/>
<path d="" fill="#000000" transform="translate(0,0)"/>
<path d="" fill="#000000" transform="translate(0,0)"/>
<path d="" fill="#000000" transform="translate(0,0)"/>
<path d="" fill="#000000" transform="translate(0,0)"/>
<path d="" fill="#000000" transform="translate(0,0)"/>
<path d="" fill="#000000" transform="translate(0,0)"/>
<path d="" fill="#000000" transform="translate(0,0)"/>
<path d="" fill="#000000" transform="translate(0,0)"/>
<path d="" fill="#000000" transform="translate(0,0)"/>
<path d="" fill="#000000" transform="translate(0,0)"/>
<path d="" fill="#000000" transform="translate(0,0)"/>
<path d="" fill="#000000" transform="translate(0,0)"/>
<path d="" fill="#000000" transform="translate(0,0)"/>
<path d="" fill="#000000" transform="translate(0,0)"/>
<path d="" fill="#000000" transform="translate(0,0)"/>
<path d="" fill="#000000" transform="translate(0,0)"/>
<path d="" fill="#000000" transform="translate(0,0)"/>
<path d="" fill="#000000" transform="translate(0,0)"/>
<path d="" fill="#000000" transform="translate(0,0)"/>
<path d="" fill="#000000" transform="translate(0,0)"/>
<path d="" fill="#000000" transform="translate(0,0)"/>
<path d="" fill="#000000" transform="translate(0,0)"/>
<path d="" fill="#000000" transform="translate(0,0)"/>
<path d="" fill="#000000" transform="translate(0,0)"/>
<path d="" fill="#000000" transform="translate(0,0)"/>
<path d="" fill="#000000" transform="translate(0,0)"/>
<path d="" fill="#000000" transform="translate(0,0)"/>
<path d="" fill="#000000" transform="translate(0,0)"/>
<path d="" fill="#000000" transform="translate(0,0)"/>
<path d="" fill="#000000" transform="translate(0,0)"/>
<path d="" fill="#000000" transform="translate(0,0)"/>
<path d="" fill="#000000" transform="translate(0,0)"/>
<path d="" fill="#000000" transform="translate(0,0)"/>
<path d="" fill="#000000" transform="translate(0,0)"/>
<path d="" fill="#000000" transform="translate(0,0)"/>
<path d="" fill="#000000" transform="translate(0,0)"/>
<path d="" fill="#000000" transform="translate(0,0)"/>
<path d="" fill="#000000" transform="translate(0,0)"/>
<path d="" fill="#000000" transform="translate(0,0)"/>
<path d="" fill="#000000" transform="translate(0,0)"/>
<path d="" fill="#000000" transform="translate(0,0)"/>
<path d="" fill="#000000" transform="translate(0,0)"/>
<path d="" fill="#000000" transform="translate(0,0)"/>
<path d="" fill="#000000" transform="translate(0,0)"/>
<path d="" fill="#000000" transform="translate(0,0)"/>
<path d="" fill="#000000" transform="translate(0,0)"/>
<path d="" fill="#000000" transform="translate(0,0)"/>
<path d="" fill="#000000" transform="translate(0,0)"/>
<path d="" fill="#000000" transform="translate(0,0)"/>
<path d="" fill="#000000" transform="translate(0,0)"/>
<path d="" fill="#000000" transform="translate(0,0)"/>
<path d="" fill="#000000" transform="translate(0,0)"/>
<path d="" fill="#000000" transform="translate(0,0)"/>
<path d="" fill="#000000" transform="translate(0,0)"/>
<path d="" fill="#000000" transform="translate(0,0)"/>
</svg>
