<svg id="visual" viewBox="0 0 1920 1080" width="1920" height="1080" xmlns="http://www.w3.org/2000/svg" xmlns:xlink="http://www.w3.org/1999/xlink" version="1.1"><rect x="0" y="0" width="1920" height="1080" fill="#FCF8E8"></rect><path d="M0 948L45.7 941.5C91.3 935 182.7 922 274.2 925.7C365.7 929.3 457.3 949.7 548.8 960.5C640.3 971.3 731.7 972.7 823 961.7C914.3 950.7 1005.7 927.3 1097 918.5C1188.3 909.7 1279.7 915.3 1371.2 920.2C1462.7 925 1554.3 929 1645.8 937.5C1737.3 946 1828.7 959 1874.3 965.5L1920 972L1920 1081L1874.3 1081C1828.7 1081 1737.3 1081 1645.8 1081C1554.3 1081 1462.7 1081 1371.2 1081C1279.7 1081 1188.3 1081 1097 1081C1005.7 1081 914.3 1081 823 1081C731.7 1081 640.3 1081 548.8 1081C457.3 1081 365.7 1081 274.2 1081C182.7 1081 91.3 1081 45.7 1081L0 1081Z" fill="#cee5d0"></path><path d="M0 1010L45.7 1005.8C91.3 1001.7 182.7 993.3 274.2 994.5C365.7 995.7 457.3 1006.3 548.8 1006.7C640.3 1007 731.7 997 823 988.7C914.3 980.3 1005.7 973.7 1097 971.2C1188.3 968.7 1279.7 970.3 1371.2 970.2C1462.7 970 1554.3 968 1645.8 970.2C1737.3 972.3 1828.7 978.7 1874.3 981.8L1920 985L1920 1081L1874.3 1081C1828.7 1081 1737.3 1081 1645.8 1081C1554.3 1081 1462.7 1081 1371.2 1081C1279.7 1081 1188.3 1081 1097 1081C1005.7 1081 914.3 1081 823 1081C731.7 1081 640.3 1081 548.8 1081C457.3 1081 365.7 1081 274.2 1081C182.7 1081 91.3 1081 45.7 1081L0 1081Z" fill="#b1ccb7"></path><path d="M0 1038L45.7 1037.7C91.3 1037.3 182.7 1036.7 274.2 1038.5C365.7 1040.3 457.3 1044.7 548.8 1042.2C640.3 1039.7 731.7 1030.3 823 1024.5C914.3 1018.7 1005.7 1016.3 1097 1018C1188.3 1019.7 1279.7 1025.3 1371.2 1025.8C1462.7 1026.3 1554.3 1021.7 1645.8 1017.2C1737.3 1012.7 1828.7 1008.3 1874.3 1006.2L1920 1004L1920 1081L1874.3 1081C1828.7 1081 1737.3 1081 1645.8 1081C1554.3 1081 1462.7 1081 1371.2 1081C1279.7 1081 1188.3 1081 1097 1081C1005.7 1081 914.3 1081 823 1081C731.7 1081 640.3 1081 548.8 1081C457.3 1081 365.7 1081 274.2 1081C182.7 1081 91.3 1081 45.7 1081L0 1081Z" fill="#94b49f"></path></svg>