<svg id="visual" viewBox="0 0 1920 1080" width="1920" height="1080" xmlns="http://www.w3.org/2000/svg" xmlns:xlink="http://www.w3.org/1999/xlink" version="1.1"><rect x="0" y="0" width="1920" height="1080" fill="#FCF8E8"></rect><path d="M0 954L45.7 949.7C91.3 945.3 182.7 936.7 274.2 932.3C365.7 928 457.3 928 548.8 933.2C640.3 938.3 731.7 948.7 823 952C914.3 955.3 1005.7 951.7 1097 942.7C1188.3 933.7 1279.7 919.3 1371.2 920C1462.7 920.7 1554.3 936.3 1645.8 941.5C1737.3 946.7 1828.7 941.3 1874.3 938.7L1920 936L1920 1081L1874.3 1081C1828.7 1081 1737.3 1081 1645.8 1081C1554.3 1081 1462.7 1081 1371.2 1081C1279.7 1081 1188.3 1081 1097 1081C1005.7 1081 914.3 1081 823 1081C731.7 1081 640.3 1081 548.8 1081C457.3 1081 365.7 1081 274.2 1081C182.7 1081 91.3 1081 45.7 1081L0 1081Z" fill="#cee5d0"></path><path d="M0 999L45.7 994.5C91.3 990 182.7 981 274.2 974.5C365.7 968 457.3 964 548.8 971.5C640.3 979 731.7 998 823 1000C914.3 1002 1005.7 987 1097 985C1188.3 983 1279.7 994 1371.2 1000.2C1462.7 1006.3 1554.3 1007.7 1645.8 1004C1737.3 1000.3 1828.7 991.7 1874.3 987.3L1920 983L1920 1081L1874.3 1081C1828.7 1081 1737.3 1081 1645.8 1081C1554.3 1081 1462.7 1081 1371.2 1081C1279.7 1081 1188.3 1081 1097 1081C1005.7 1081 914.3 1081 823 1081C731.7 1081 640.3 1081 548.8 1081C457.3 1081 365.7 1081 274.2 1081C182.7 1081 91.3 1081 45.7 1081L0 1081Z" fill="#b1ccb7"></path><path d="M0 1009L45.7 1007.8C91.3 1006.7 182.7 1004.3 274.2 1005.7C365.7 1007 457.3 1012 548.8 1019.8C640.3 1027.7 731.7 1038.3 823 1040C914.3 1041.7 1005.7 1034.3 1097 1029.5C1188.3 1024.7 1279.7 1022.3 1371.2 1020.5C1462.7 1018.7 1554.3 1017.3 1645.8 1018.5C1737.3 1019.7 1828.7 1023.3 1874.3 1025.2L1920 1027L1920 1081L1874.3 1081C1828.7 1081 1737.3 1081 1645.8 1081C1554.3 1081 1462.7 1081 1371.2 1081C1279.7 1081 1188.3 1081 1097 1081C1005.7 1081 914.3 1081 823 1081C731.7 1081 640.3 1081 548.8 1081C457.3 1081 365.7 1081 274.2 1081C182.7 1081 91.3 1081 45.7 1081L0 1081Z" fill="#94b49f"></path></svg>